<svg id="Layer_1" data-name="Layer 1" xmlns="http://www.w3.org/2000/svg" viewBox="0 0 215.98 291.83"><title>Lionel Messi vector - Brandlogos.net</title><polygon points="133.89 49.97 115.05 18.72 39.72 34.35 39.72 72.69 37.79 92.23 42.34 123.03 61.96 153.68 94.7 158.31 123.5 139.75 129.06 126.33 131.56 120.77 132.49 120.54 133.6 122.64 136.16 124.44 140.13 124.27 144.56 122 148.47 118.32 149.63 116.86 151.13 113.65 151.59 110.94 151.59 107.63 153.14 103.56 152.26 95.04 151.13 85.94 148.87 82.68 146.18 84.29 136.41 74.87 133.89 49.97" style="fill:#dadada"/><polygon points="72.92 33.63 62.52 38.77 52.1 50.4 44.33 67.72 43.88 74.87 42.34 81.31 41.56 67.4 47.97 49.52 60.95 37.44 73.72 31.76 72.92 33.63" style="fill:#4f4f4f"/><polygon points="43.34 76.94 44.47 77.01 46.1 71.19 49.98 66.3 60.06 64.86 62.65 64.14 65.96 64 72.87 65.72 74.21 64 66.2 63.09 58.03 62.56 57.77 54.98 68.35 35.89 62.52 38.77 52.1 50.41 44.33 67.72 43.34 76.94" style="fill:#a4a4a4"/><polygon points="81.16 32.82 97.54 29.99 96.56 29.73 79.83 31.33 70.56 43.88 70.56 45.15 81.16 32.82" style="fill:#7f7f7f"/><path d="M368.63,238.09l-10.18,2.44H346l-5.09-1.22-7.73,4.89-4.68,2.44-10.18,9.77s-4,8.75-4.39,10.09-5.61,7.93-5.61,7.93L307,277l-.61,4.88-1.1,3.66v2s1.22,2.32,1.71,1.83.77-.76.35-1.13-1.2-.37-.79-2.91.65-2.49.65-2.49.55-.37.74.09.7,1.65.7,1.65a1.78,1.78,0,0,1,.23,1.76c-.47.82.12,5.28.12,5.28l2,5.17.12-2.94-.82-2V289l.7-2.23.59,1.06-.12,1.76.47,1.53.7-3.05.94,1.06,1.06-.59.47-2,.6,0-.18,8-1.72,3.5.12,17.5.56,7.82h1.38l-.14,4.31.42-.4.55-1.41.21-1.44.4-.23.19-1.82.26-.24.38-1.53.37-.12-.13-15.67.44,0v-1.53l.58,0,0-2.11h.44L324,287.6l13-12.08,12.77-5.67-7.86,18.48,14-18.92,7.42-.87,9.31-.73,25.17,6.84v27.21l7.13,8.44v10.19l4.66,10.91,1.46,1s3.78-7.13,11.2-10l.58-4.95,1-6.4-1.89-4.37V295.6h1.89v-6.11l-6.4-9.75-.15-1.45,4.22,2.47-5.24-6.69-6,1.75L410.12,265l-7.71-12.51-14.55-8.15Z" transform="translate(-276.01 -238.09)"/><polygon points="52.64 82.68 48.99 82.68 44.35 86.67 43.88 89.57 43.43 92.15 43.85 101.57 50.11 119.94 52.61 121.73 55.41 120 60.76 115.46 60.06 113.5 55.41 113.5 53 104.71 50.84 98.02 49.42 94.33 49.35 90.23 50.84 87.12 52.64 82.68" style="fill:#bdbdbd"/><path d="M336.16,423.09l-4.5,3.21h-2l-5.4,4.93L303.6,443.42l13.46-6.51,13.19-6.85,0,3.66-15,7.36-1.76-.47-8.68,5.16h-5.75l-23,13,.73,1.09,26.07-10.29,1.25.69-23.8,12.18L379,529.91l94.38-73.68-22.44-18.3s-12-8.79-12.74-8.29,2.63.4-6.57-2.53l4.14-5.16,6.37,3.44,9,6.17,18.6,14.56,8.38,6.52,2.44-2.37-37-30s.3,0-4.85-1.92l2.12-2.93,4.25,1.21,5.36,4.45,33.31,27,2.17-2.07-37.81-29.11-2-3.12-3.11.09-.54-1.52-8.69-7.18H423.12l.2.91,4.35,2.33.91,1.92L414.42,429l-43.57,30-30.73-16.68Z" transform="translate(-276.01 -238.09)"/><polygon points="212.45 205.48 215.98 202.63 182.51 181.78 212.45 205.48" style="fill:#050505"/><polygon points="134.8 239.49 136.41 236.07 137.23 239.1 140.65 239.49 138.19 241.36 138.31 245.34 135.62 243.23 132.34 245.34 133.51 241.24 132.17 239.62 134.8 239.49" style="fill:#fff"/><polygon points="151.42 240.04 153.14 237.01 153.85 239.65 157.52 240.71 154.82 241.91 154.93 245.89 151.88 243.5 149.12 245.34 150.14 241.79 147.91 239.92 151.42 240.04" style="fill:#fff"/><polygon points="113.11 123.79 120.89 117.34 126.12 109.7 132.24 98.88 133.74 96.45 133.89 107.94 131.56 113.47 131.56 116.63 131.56 119.84 131.56 123.03 128.11 125.83 127.56 121.73 126.81 116.14 123.08 120.47 113.11 123.79" style="fill:#909090"/><polygon points="46.63 106 51.65 116.63 51.65 120.49 52.61 121.73 55.41 120 53.27 126.33 41.8 111.47 40.77 101.57 39.72 101.57 39.72 90.64 39.72 89.57 43.88 89.57 43.43 92.15 44.47 96.45 45.81 101.57 46.63 106" style="fill:#8f8f8f"/><polygon points="106.15 158.31 99.8 163.12 95.71 171.84 94.7 171.84 94.7 173.65 95.71 173.65 101.35 180.42 107.91 175.08 103.72 167.1 106.15 158.31" style="fill:#4a4a4a"/><polygon points="93.59 185.79 97.1 193.02 103.63 194.24 105.34 205.92 102.4 212.36 101.91 214.57 103.32 215.14 138.41 190.95 152.56 172.25 151.66 170.33 147.31 168.01 151.59 171.22 140.87 183.16 140.07 186.93 125.68 194.84 118.95 189.98 107.91 190.25 104.94 190.6 101.31 191.03 99.86 191.2 97.1 186.93 100.63 182.59 101.64 179.55 93.59 185.79" style="fill:#484848"/><polygon points="128.11 141.85 110.01 159.27 112.01 167.33 113.47 173.23 113.47 175.71 111.83 181.28 111.38 183.34 122.7 185.65 130.27 187.15 132.66 180.92 138.6 166.8 129.32 158.27 128.11 141.85" style="fill:#b6b6b6"/><path d="M412.49,363V392.9s5.28,11.25,10.63,12.29l.2.91,4.28,3.21-5.93,6.61-4.79,5.33-5.44,3.4L406,425l1.24-3.63,7.32-16.5-9.51-8.74-1-16.61V372.2l3.39-9.16.11-3.52h1.2l.77,2.19Z" transform="translate(-276.01 -238.09)" style="fill:#dadada"/><polygon points="110.01 159.27 128.11 141.85 124.19 140.98 109.02 156.1 106.15 158.31 103.72 167.1 107.91 175.08 101.4 180.27 100.63 182.59 97.1 186.93 99.86 191.2 109.2 190.22 118.95 189.98 125.68 194.84 140.07 186.93 140.87 183.16 135.43 186.56 130.04 186.93 111.38 183.34 113.47 175.71 113.47 173.23 112.03 167.45 110.01 159.27" style="fill:#6d6d6d"/><polygon points="70.53 165.82 79.9 171.6 89.15 169.08 99.8 163.12 95.71 171.84 94.7 171.84 94.7 173.65 95.71 173.65 101.31 180.36 93.59 185.79 97.1 193.02 103.63 194.24 106.13 206.23 102.4 212.36 101.91 214.57 103.32 215.14 94.84 220.98 86.11 216.24 90.34 210.97 78.44 198.3 77.88 187.15 76.06 182.73 74.75 179.02 74.7 177.91 77.37 174.1 77.44 172.39 70.53 165.82" style="fill:#242424"/><polygon points="61.65 163.12 67.53 163.88 70.53 165.82 78.16 173.08 74.7 177.91 74.79 179.13 77.88 187.15 78.44 198.3 90.34 210.97 86.11 216.24 64.11 204.3 58.26 175.8 55.78 164.5 55.15 157.76 61.65 163.12" style="fill:#484848"/><polygon points="73.56 207.6 76.16 201.62 84.52 210.22 73.56 207.6" style="fill:#707070"/><polygon points="33.25 109.41 34.33 106 36.41 100.92 36.41 93.6 35.5 93.6 35.5 89.55 33.25 84.81 36.41 84.02 38.09 84.91 39.86 85.26 39.72 90.64 39.72 100.72 39.72 101.57 40.36 113.46 42.34 120.28 35.96 121.91 34.83 117.34 34.73 113.76 33.84 111.39 33.25 109.41" style="fill:#6e6e6e"/><polygon points="65.79 90.7 64.8 83.05 70.56 78.33 65.79 90.7" style="fill:#b5b5b5"/><polygon points="107.91 130.36 111.28 124.4 123.08 120.47 126.81 116.14 128.11 125.83 131.56 123.03 128.11 134.12 128.11 141.85 124.19 140.98 57.47 148.1 40.63 112.23 39.72 101.57 40.77 101.57 41.8 111.47 53.27 126.33 55.41 120 70.63 107.11 72.25 104.85 71.86 103.15 70.56 102.64 68.94 100.5 68.94 99.47 70.53 99.47 72.75 99.47 73.95 100.21 75.59 98.88 74.75 102.61 80.1 103.28 79.33 105.06 79.33 106.46 99.81 127.19 107.91 130.36" style="fill:#484848"/><path d="M393.29,369.59l9.53-10.77v4.28l-.64.15L402,367l-1.81,12.09L385,394.18l-9.22,7-10.64,6-9.25,2.52-9.37-5.77-3-1.94-5.88-.76-6.5-5.36-.47-5.67v-1.4l-10-16.6-1.71-9.88-4.55-.53L312,360s.53-4.33,4.8-5.05l-1.23-4.49h-3.23l-.33-2.51-.46-1.4V344l3.11-4.39h1.1l.91,10.66L322.1,362l7.47,5.39.65,3.46.94.22,2.33-8.15,4.51-6.23-2.42-1,1.78-3.15,8.75-7,.54-.36.28,5.79-.68,3-4.83,1.79-2.12,2.59,2.84-.59.6,1.27,9.29.82,4-.89,5.67-.58,4.34,1.1-5.83-4.85-3.92-.32L355.26,348h-1.09l.34,5.31-2.42.47-4.52-.26-.11-2.78h.66l0-2.65,3.68-.47,2.42-2.16,1.16-.92L359,346l4.16,3,8.57,7,2.6,5.2,1.2,2.84.3,1.21.11,2.23,2.16,2.36,4.64,1.95,6.7-1.06Z" transform="translate(-276.01 -238.09)"/><polygon points="66.44 133.42 70.53 130.69 82.39 130.69 84.94 134.01 74.6 139.63 70.53 135.98 66.42 137.78 63.97 141.85 66.2 145.98 74.45 145.09 79.89 153.68 93.59 147.91 96.44 134.29 94.21 128.29 89.24 124.78 82.67 123.03 78.11 124.21 65.51 123.36 60.06 127.89 60.8 134.71 66.44 133.42" style="fill:#6c6c6c"/><polygon points="60.06 127.89 65.51 123.36 70.53 123.36 70.53 124.34 78.11 124.21 78.11 123.36 82.67 123.03 89.69 125.46 91.04 125.46 91.04 127.89 93.59 132.43 90.34 134.06 90.34 136.58 91.51 138.24 82.03 146.39 77.85 144.19 75.5 141.85 66.58 143.78 66.42 137.78 70.53 135.98 74.6 139.63 87.53 132.59 82.28 128.03 70.53 128.16 66.44 133.42 60.8 134.71 60.06 127.89" style="fill:#919191"/><polygon points="71.64 127.87 64.75 126.83 66.79 123.79 82.81 123.79 90.34 125.83 90.34 127.87 79.95 127.87 71.64 127.87" style="fill:#d8d8d8"/><polygon points="76 121.73 90.06 121.36 84.22 116.51 80.31 116.19 79.24 109.92 78.16 109.91 78.5 115.22 76.08 115.69 71.56 115.43 71.45 112.66 72.11 112.66 72.06 110.01 75.75 109.54 78.17 107.38 74.59 107.38 70.63 107.11 70.82 111.04 70.91 112.9 70.23 115.85 65.4 117.64 63.28 120.23 66.11 119.64 66.71 120.91 76 121.73" style="fill:#474747"/><polygon points="71.86 117.55 71.86 116.14 74.35 116.84 77.55 116.14 79.33 116.14 79.33 116.84 77.55 117.98 75.59 118.55 74.34 118.55 73.6 117.88 71.86 117.55" style="fill:#919191"/><polygon points="74.75 70.36 80.77 70.1 83.65 69.84 83.56 68.53 79.89 62.25 77.28 64.57 76.18 64.47 76.46 62.34 73.45 69.76 72.3 72.69 74.75 70.36" style="fill:#939393"/><polygon points="55.41 82.35 48.99 82.68 52.36 78.91 53.73 78.91 55.18 78.01 58.79 78.33 64.97 78.63 65.25 81.16 63.28 81.16 63.28 81.88 61.83 81.88 61.48 82.35 55.41 82.35" style="fill:#8c8c8c"/><polygon points="39.72 89.57 43.88 89.57 44.35 86.67 48.99 82.68 52.36 78.91 58.08 75.32 61.96 74.61 60.97 69.32 53.15 69.68 49.43 70.94 46.1 71.19 44.97 74.96 44.47 77.01 43.34 76.94 42.34 81.31 39.72 89.57" style="fill:#6b6b6b"/><path d="M331.42,320.44h6.08l.35-.47h1.45v-.72h2l-.28-2.53-6.18-.3,9.34-1,3.21-.06L344.77,317l-.19,1.67-2.15.92-1.62,1.54h-2.46l-1.08,1h-4a10.93,10.93,0,0,1-1.86-1.67" transform="translate(-276.01 -238.09)" style="fill:#4d4d4d"/><polygon points="58.79 78.33 55.18 78.01 57.83 76.37 58.79 78.33" style="fill:#fff"/><polygon points="72.87 65.72 76.67 60.83 73.44 69.76 71.8 73.35 66.57 68.57 54.4 67.72 49.43 70.94 46.1 71.19 49.98 66.3 60.06 64.86 62.65 64.14 65.96 64 72.87 65.72" style="fill:#434343"/><polygon points="54.4 67.72 66.57 68.57 71.8 73.35 71.8 74.66 71.29 74.66 71.35 77.32 68.13 77.38 58.79 78.33 57.83 76.37 53.73 78.91 52.36 78.91 54.21 76.17 58.12 73.92 60.57 74.02 60.51 73.31 57.45 73.31 51.36 77.58 48.04 77.48 55.41 72.13 58.47 72.41 58.37 71.49 60.59 71.86 59.92 70.57 49.43 70.93 54.4 67.72"/><polygon points="87.92 67.72 95.71 67.09 100.4 67.09 109.04 68.1 114.96 75.44 117.38 81.2 117.38 82.32 110.35 82.32 109.39 83.28 107.03 84.59 104.24 85.11 101.85 84.97 98.46 83.16 87.57 80.34 84.25 74.64 84.25 72.8 83.32 72.8 80.77 70.98 80.77 70.1 83.65 69.84 83.56 68.53 82.54 66.61 80.77 63.21 79.89 62.25 83.82 62.69 87.92 67.72" style="fill:#474747"/><polygon points="82.54 77.35 83.32 75.88 83.32 72.8 84.25 72.8 84.25 75.91 87.37 78.33 90.34 76.95 91.41 77.32 88.53 79.45 94.73 79.45 97.1 79.45 98.98 80.34 106.33 80.34 108.09 81.4 108.09 82.68 104.05 84.02 101.77 84.02 99.6 82.68 98.46 83.16 99.53 84.02 101.85 84.97 101.85 85.79 100.12 85.38 96.44 83.48 95.71 82.68 93.59 82.68 91.78 83.65 91.65 85.94 82.54 77.35" style="fill:#8e8e8e"/><polygon points="113.11 81.2 117.38 81.2 119.14 79.91 118.19 78.63 113.86 74.36 110.8 73.35 108.09 71.42 102.11 71.42 97.1 72.8 101.37 73.31 105.66 73.87 113.11 78.91 113.11 81.2" style="fill:#939393"/><path d="M359.18,332.42l4.25,1,1.12,6.21.64,3.39,2.88-.45,3.67,2.6v-2.82l-3.57-5-1.07-2.81-3.58-5.9h-1.85v-6.53l.71-1,5.31,2.91a.11.11,0,0,0,.13-.18l-3.56-3.38-5.69-5-1.38,2.1v4.57l.8,5.55Z" transform="translate(-276.01 -238.09)" style="fill:#b8b8b8"/><polygon points="98.92 76.31 102.23 76.31 106.42 78.33 108.09 80.67 106.33 80.34 98.98 80.34 97.1 79.45 97.1 77.35 94.2 77.35 94.73 79.45 88.53 79.45 91.41 77.32 90.34 76.95 87.37 78.33 84.25 75.91 84.25 74.64 85.64 72.8 85.13 70.28 85.64 68.53 86.35 68.53 87.05 69.84 90.34 70.19 91.24 69.32 94.64 69.32 97.1 69.32 97.1 68.53 100.75 68.53 106.94 71.42 102.11 71.42 97.1 72.8 105.66 73.87 113.11 78.91 113.11 81.2 110.96 80.67 104.68 75.43 98.68 75.34 98.92 76.31" style="fill:#030303"/><polygon points="94.73 79.45 94.2 77.35 97.1 77.35 97.1 79.45 94.73 79.45" style="fill:#fff"/><polygon points="65.69 96.45 69.96 97.03 71.05 97.63 76.67 97.63 79.89 97.63 84.14 99.26 75.13 100.95 69.89 101.76 64.75 98.88 65.69 96.45" style="fill:#909090"/><polygon points="68.1 106 68.43 108.78 70.63 107.11 72.25 104.84 71.86 103.15 70.56 102.64 70.23 103.78 68.54 103.57 67.67 104.05 68.1 106" style="fill:#bdbdbd"/><polyline points="84.25 104.84 81.96 104.28 79.33 105.06 79.33 106.46 82.98 107.95 87.14 110.97 89.17 112.62 86.79 108.45 86.59 107.11 88.33 106 84.25 104.84 79.33 105.06" style="fill:#9d9d9d"/><polygon points="68.59 106 63.28 101.57 64.75 98.88 67.22 99.87 68.59 101.57 69.89 101.76 70.56 102.64 70.23 103.78 68.54 103.57 68.33 104.73 68.59 106" style="fill:#030303"/><polygon points="74.75 102.61 75.13 100.95 79.33 99.86 81.16 99.26 84.14 99.26 86.82 101.33 88.53 101.57 89.17 103.16 89.17 104.96 88.33 106 84.73 107.11 81.96 106 84.25 104.84 81.96 104.28 79.33 105.06 80.1 103.28 74.75 102.61" style="fill:#060606"/><polygon points="144.21 112.51 144.21 111.14 145.45 110.79 145.45 109.73 141.76 106.79 139.06 106.79 139.06 105.89 141.4 105.89 144.7 103.52 142.25 101.07 145.45 101.07 147.78 104.28 149.28 103.85 150.23 106.79 151.13 107.63 150.96 109.58 148.87 111.14 145.45 112.02 144.21 112.51" style="fill:#6a6a6a"/><polygon points="139.06 115.1 146.65 115.1 150.86 110.7 145.45 109.73 141.76 106.79 139.06 106.79 137.55 106.79 137.55 110.94 134.88 112.51 139.06 115.1" style="fill:#b3b3b3"/><polygon points="134.88 116.75 132.7 114.42 131.56 116.63 131.56 119.84 133.57 123.63 136.47 124.96 141.4 124.96 144.35 123.03 147.24 121.44 150.55 115.1 146.65 119.69 141.05 123.03 134.88 123.49 133.03 120.41 133.14 116.75 134.88 116.75" style="fill:#494949"/><polygon points="141.4 95.64 143.53 95.64 143.53 91.98 141.4 95.64"/><polygon points="145.45 90.38 151.13 85.94 151.59 88.24 151.59 89.15 151.84 91.26 151.9 92.28 152.18 94.67 152.41 96.45 153.81 100.15 152.09 104.28 150.25 101.57 151.59 101.57 151.05 95.64 148.87 97.28 147.78 92.23 145.45 90.38" style="fill:#010101"/><polygon points="148.87 97.28 151.05 95.64 151.59 101.57 150.25 101.57 148.87 97.28" style="fill:#7a7a7a"/><polygon points="152.09 104.28 153.81 100.15 153.81 103.67 152.09 107.06 152.09 113.59 150.55 115.1 146.65 115.1 146.65 114.22 150.86 110.7 151.13 107.63 152.09 104.28" style="fill:#3d3d3d"/><polygon points="139.06 105.89 141.4 105.89 144.7 103.52 142.25 101.07 141.05 100.53 140.35 99.65 139.06 99.65 138.38 100.79 138.38 101.75 137.92 104.28 137.92 105.4 139.06 105.89"/></svg>